<svg xmlns="http://www.w3.org/2000/svg" version="1.1" xmlns:xlink="http://www.w3.org/1999/xlink" xmlns:svgjs="http://svgjs.dev/svgjs" width="1000" height="623" viewBox="0 0 1000 623"><g transform="matrix(1,0,0,1,-0.6060606060606233,0.2522267206477409)"><svg viewBox="0 0 396 247" data-background-color="#684c96" preserveAspectRatio="xMidYMid meet" height="623" width="1000" xmlns="http://www.w3.org/2000/svg" xmlns:xlink="http://www.w3.org/1999/xlink"><g id="tight-bounds" transform="matrix(1,0,0,1,0.2400000000000091,-0.09999999999999432)"><svg viewBox="0 0 395.52 247.2" height="247.2" width="395.52"><g><svg></svg></g><g><svg viewBox="0 0 395.52 247.2" height="247.2" width="395.52"><g transform="matrix(1,0,0,1,108.02639999999998,47.215199999999996)"><svg viewBox="0 0 179.46720000000002 152.7696" height="152.7696" width="179.46720000000002"><g><svg viewBox="0 0 179.46720000000002 152.7696" height="152.7696" width="179.46720000000002"><g><svg viewBox="0 0 179.46720000000002 152.7696" height="152.7696" width="179.46720000000002"><g><svg viewBox="0 0 179.46720000000002 152.7696" height="152.7696" width="179.46720000000002"><g id="textblocktransform"><svg viewBox="0 0 179.46720000000002 152.7696" height="152.7696" width="179.46720000000002" id="textblock"><g><svg viewBox="0 0 179.46720000000002 152.7696" height="152.7696" width="179.46720000000002"><g transform="matrix(1,0,0,1,0,0)"><svg width="179.46720000000002" viewBox="-5.5 -38.5 60.5 51.5" height="152.7696" data-palette-color="#ffffff"><path d="M7.25 2.15L7.25-30.9Q7.25-32.65 7.08-33.73 6.9-34.8 6.38-35.43 5.85-36.05 4.85-36.27 3.85-36.5 2.25-36.6L2.25-36.6 2.25-38.5 17.45-38.5 17.45-36.6Q15.85-36.55 14.88-36.3 13.9-36.05 13.38-35.4 12.85-34.75 12.68-33.6 12.5-32.45 12.5-30.55L12.5-30.55 12.5 0.1Q12.5 6.4 9.85 9.7 7.2 13 2.1 13L2.1 13Q-1.35 13-3.43 11.68-5.5 10.35-5.5 8.15L-5.5 8.15Q-5.5 6.85-4.83 6.18-4.15 5.5-2.95 5.5L-2.95 5.5Q-2 5.5-1.43 5.98-0.85 6.45-0.1 7.85L-0.1 7.85Q0.75 9.45 1.38 10.03 2 10.6 3 10.6L3 10.6Q5.05 10.6 6.15 8.4 7.25 6.2 7.25 2.15L7.25 2.15ZM55-9.85L54.25 0 21.95 0 21.95-1.9Q23.7-1.95 24.77-2.2 25.85-2.45 26.45-3.05 27.05-3.65 27.25-4.75 27.45-5.85 27.45-7.6L27.45-7.6 27.45-30.9Q27.45-32.65 27.27-33.73 27.1-34.8 26.57-35.43 26.05-36.05 25.05-36.27 24.05-36.5 22.45-36.6L22.45-36.6 22.45-38.5 37.65-38.5 37.65-36.6Q36.05-36.55 35.07-36.3 34.1-36.05 33.57-35.4 33.05-34.75 32.87-33.6 32.7-32.45 32.7-30.55L32.7-30.55 32.7-9Q32.7-6.9 33.12-5.58 33.55-4.25 34.57-3.53 35.6-2.8 37.3-2.53 39-2.25 41.6-2.25L41.6-2.25Q44.45-2.25 46.4-2.58 48.35-2.9 49.67-3.73 51-4.55 51.77-6.03 52.55-7.5 53.1-9.85L53.1-9.85 55-9.85Z" opacity="1" transform="matrix(1,0,0,1,0,0)" fill="#ffffff" class="undefined-text-0" data-fill-palette-color="primary" id="text-0"></path></svg></g></svg></g></svg></g></svg></g></svg></g></svg></g></svg></g><g><path d="M213.334 0c30.402 0 58.24 10.976 79.768 29.183l-11.147 0c-19.26-14.022-42.974-22.294-68.621-22.295-25.647 0-49.361 8.272-68.622 22.295l-11.147 0c21.528-18.206 49.366-29.183 79.769-29.183zM336.934 123.6c0 31.48-11.769 60.212-31.148 82.035v-10.793c15.211-19.71 24.259-44.419 24.259-71.242 0-26.823-9.048-51.532-24.259-71.242v-10.793c19.378 21.823 31.147 50.555 31.148 82.035zM213.334 247.2c-30.402 0-58.24-10.976-79.769-29.183h11.148c19.26 14.022 42.974 22.294 68.621 22.295 25.647 0 49.361-8.272 68.621-22.295l11.147 0c-21.528 18.206-49.366 29.183-79.768 29.183z" fill="#ffffff" stroke="transparent" data-fill-palette-color="tertiary"></path></g></svg></g><defs></defs></svg><rect width="395.52" height="247.2" fill="none" stroke="none" visibility="hidden"></rect></g></svg></g></svg>